<svg xmlns="http://www.w3.org/2000/svg" version="1.1" width="96" height="96" viewbox="0 0 96 96"><rect x="0" y="0" width="96" height="96" fill="#FFFFFF"></rect><g transform="translate(37.367999999999995, 60)"><path d="M11.62-23.42L7.3-12 11.62-0.58Q15.98 10.8 15.98 11.14L15.98 11.14Q15.79 12 14.93 12L14.93 12Q14.5 12 14.21 11.52L14.21 11.52Q14.06 11.18 9.67-0.29 5.28-11.76 5.28-12 5.28-12.24 9.67-23.71 14.06-35.18 14.21-35.52L14.21-35.52Q14.35-35.76 14.69-35.95L14.69-35.95 14.83-36Q14.98-36 15.02-36L15.02-36Q15.89-36 15.98-35.14L15.98-35.14Q15.98-34.8 11.62-23.42L11.62-23.42Z" fill="#404040"></path></g></svg>