<svg xmlns="http://www.w3.org/2000/svg" version="1.1" width="96" height="96" viewbox="0 0 96 96"><rect x="0" y="0" width="96" height="96" fill="#FFFFFF"></rect><g transform="translate(40.007999999999996, 60)"><path d="M7.01-0.58L11.33-12 7.01-23.42Q2.64-34.8 2.64-35.14L2.64-35.14Q2.83-36 3.7-36L3.7-36Q4.13-36 4.42-35.52L4.42-35.52Q4.56-35.18 8.95-23.71 13.34-12.24 13.34-12 13.34-11.76 8.95-0.29 4.56 11.18 4.42 11.52L4.42 11.52Q4.13 12 3.65 12L3.65 12Q2.83 12 2.64 11.14L2.64 11.14Q2.64 10.8 7.01-0.58L7.01-0.58Z" fill="#404040"></path></g></svg>